<?xml version="1.0" encoding="iso-8859-1"?>
<!-- Generator: Adobe Illustrator 19.0.0, SVG Export Plug-In . SVG Version: 6.00 Build 0)  -->
<svg xmlns="http://www.w3.org/2000/svg" xmlns:xlink="http://www.w3.org/1999/xlink" version="1.1" id="Layer_1" x="0px" y="0px" viewBox="0 0 502.054 502.054" style="enable-background:new 0 0 502.054 502.054;" xml:space="preserve" width="512" height="512">
<g>
	<g>
		<path style="fill:#FBB03B;" d="M273.831,178.061l33.48,33.48c11.159,11.159,10.319,29.493-1.814,39.585L41.256,470.924    c-7.564,6.292-18.676,5.783-25.633-1.174l0,0c-6.957-6.957-7.466-18.069-1.174-25.633l219.797-264.242    C244.338,167.742,262.672,166.902,273.831,178.061z"/>
		<path style="fill:#39B54A;" d="M291.021,192.964l92.735-92.735c0,0,77.981-85.007,103.975-59.013    c25.994,25.994-72.881,86.528-96.95,96.95C345.35,157.837,291.021,192.964,291.021,192.964z"/>
		<path style="fill:#39B54A;" d="M290.904,192.847l76.656-76.656c0,0,70.268-64.46,48.781-85.947    c-21.487-21.487-71.525,60.245-80.14,80.14C319.94,147.937,290.904,192.847,290.904,192.847z"/>
	</g>
	<g>
		<path d="M494.802,34.145c-5.32-5.32-12.437-8.042-20.613-7.863c-13.166,0.284-29.007,8.502-44.092,19.123    c0.187-1.344,0.294-2.654,0.322-3.931c0.156-7.233-2.267-13.562-7.007-18.302c-5.353-5.353-12.496-7.501-20.114-6.049    c-13.277,2.531-28.652,15.944-47.003,41.005c-13.296,18.159-25.005,38.428-29.271,48.281    c-11.437,26.414-29.617,56.994-38.804,71.897l-7.317-7.317v0c-7.302-7.302-17.417-11.217-27.722-10.747    c-10.315,0.473-20.019,5.297-26.623,13.236L6.761,437.722c-9.658,11.611-8.887,28.419,1.792,39.098    c5.676,5.676,13.082,8.553,20.521,8.553c6.557,0,13.139-2.236,18.579-6.761l264.242-219.797    c7.939-6.604,12.763-16.308,13.235-26.624c0.473-10.315-3.444-20.419-10.746-27.721l-8.834-8.834    c17.242-10.686,55.929-33.885,89.206-48.294c11.814-5.116,36.158-19.184,58.002-35.179c29.454-21.568,45.868-40.262,48.785-55.563    C503.187,47.966,500.857,40.201,494.802,34.145z M345.377,114.357c3.189-7.366,13.994-26.576,27.055-44.412    c20.987-28.661,31.798-32.639,34.612-33.175c0.36-0.069,0.648-0.1,0.887-0.1c0.695,0,0.961,0.267,1.339,0.645    c0.392,0.392,1.208,1.208,1.154,3.726c-0.277,12.979-19.048,36.661-36.295,54.672l-9.817,9.817    c-1.204,1.149-2.379,2.251-3.512,3.291c-0.106,0.097-0.21,0.196-0.312,0.298l-23.795,23.795    C339.79,126.702,342.74,120.447,345.377,114.357z M299.103,243.439L34.861,463.236c-3.613,3.006-8.844,2.766-12.167-0.557    s-3.563-8.554-0.558-12.167l52.071-62.6l7.206,7.206c1.953,1.953,4.512,2.929,7.071,2.929c2.559,0,5.119-0.976,7.071-2.929    c3.905-3.905,3.905-10.237,0-14.143l-8.505-8.505l22.25-26.749l11.498,11.498c1.953,1.953,4.512,2.929,7.071,2.929    s5.119-0.977,7.071-2.929c3.905-3.905,3.905-10.237,0-14.142l-12.796-12.796l21.575-25.937l19.436,19.436    c1.953,1.953,4.512,2.929,7.071,2.929s5.119-0.976,7.071-2.929c3.905-3.905,3.905-10.237,0-14.143l-20.735-20.735l20.224-24.314    l23.522,23.522c1.953,1.952,4.512,2.929,7.071,2.929s5.119-0.977,7.071-2.929c3.905-3.905,3.905-10.237,0-14.143l-24.821-24.821    l18.2-21.881l5.111,5.111c1.953,1.953,4.512,2.929,7.071,2.929c2.559,0,5.119-0.977,7.071-2.929    c3.905-3.905,3.906-10.237,0-14.142l-6.41-6.41l21.258-25.557c3.061-3.68,7.38-5.827,12.162-6.046    c0.268-0.012,0.535-0.018,0.801-0.018c4.481,0,8.667,1.732,11.862,4.927c0,0,0,0,0,0l33.481,33.48    c3.384,3.384,5.128,7.882,4.909,12.663C304.931,236.059,302.783,240.378,299.103,243.439z M481.895,52.856    c-0.685,3.594-5.664,17.33-40.955,43.171c-21.948,16.072-44.868,28.95-54.133,32.962c-11.227,4.861-22.912,10.601-34.19,16.519    l27.041-27.04c1.686-1.648,3.699-3.649,5.936-5.936l5.231-5.231c0.101-0.101,0.2-0.205,0.296-0.31    c21.334-23.239,62.87-60.272,83.5-60.713c0.112-0.002,0.222-0.003,0.331-0.003c3.264,0,4.763,1.07,5.706,2.013    C481.807,49.435,482.344,50.503,481.895,52.856z"/>
		<path d="M249.378,240.529c-3.905-3.905-10.238-3.905-14.142,0c-3.905,3.906-3.905,10.237,0,14.142l4.459,4.458    c1.953,1.953,4.512,2.929,7.071,2.929s5.119-0.977,7.071-2.929c3.905-3.906,3.905-10.237,0-14.142L249.378,240.529z"/>
	</g>
</g>















</svg>
